<svg id="Layer_1" data-name="Layer 1" xmlns="http://www.w3.org/2000/svg" viewBox="0 0 110.88 95.5"><defs><style>.cls-1{fill:#fff;}</style></defs><title>logo 2</title><path class="cls-1" d="M118.47,89.93s-1.92,0-2.67-.06A4.1,4.1,0,0,0,118.47,89.93Z" transform="translate(-47.62 -1.84)"/><path class="cls-1" d="M90.65,91.21a4,4,0,0,0,3.25-.32A10.77,10.77,0,0,1,90.65,91.21Z" transform="translate(-47.62 -1.84)"/><path class="cls-1" d="M90.26,89.39c-.75,0-2.67.06-2.67.06A4.1,4.1,0,0,0,90.26,89.39Z" transform="translate(-47.62 -1.84)"/><path class="cls-1" d="M98.36,91A6.42,6.42,0,0,1,94.9,92.4S97.56,93.13,98.36,91Z" transform="translate(-47.62 -1.84)"/><path class="cls-1" d="M111.16,92.88a6.42,6.42,0,0,1-3.46-1.37C108.5,93.61,111.16,92.88,111.16,92.88Z" transform="translate(-47.62 -1.84)"/><path class="cls-1" d="M115.41,91.69a10.77,10.77,0,0,1-3.25-.32A4,4,0,0,0,115.41,91.69Z" transform="translate(-47.62 -1.84)"/><path class="cls-1" d="M158.11,76.8l-.7-.93A27.22,27.22,0,0,0,152.29,71,34.18,34.18,0,0,0,142,65.67l.09-.42.32-1.39h0l.89-4h0c.53-2.4,1.14-5.2,1.72-8v0A2.48,2.48,0,0,0,142,49l-.32.08a38.81,38.81,0,0,0-4.76-12l1-3.8a7.15,7.15,0,0,0,1.83-1.36l1.16-1.19a5.3,5.3,0,0,0,1.47-3.12,5.8,5.8,0,0,0,0-1.48,4.46,4.46,0,0,0-.13-1.11,2.44,2.44,0,1,0-3-3.84l-.93-.91a3.07,3.07,0,1,0-4-2.2h-.21l-.27,0a5.44,5.44,0,0,0-4.29,1.59l-1.18,1.21a7.19,7.19,0,0,0-1.88,3.55l-.83.74-.34-.23a39.08,39.08,0,0,0-5.07-2.9l.24-.46,1.87-.22L121.06,20l.37-1.84-1.69.83-1.64-.92.26,1.86-1,.88a38.89,38.89,0,0,0-6-1.76,39.28,39.28,0,0,0-7.86-.79q-1.55,0-3.1.12l.62-1.16,3.66-.42-2.56-2.65.73-3.61-3.31,1.62-3.21-1.81L96.85,14l-2.71,2.49,3.63.64.67,1.46q-1.4.18-2.79.46t-2.9.71l.07-.33,2.33-1L93,17.22l-.19-2.51-1.88,1.67-2.44-.6,1,2.3-1.32,2.14,2.5-.25.3.35q-1.34.45-2.64,1a39,39,0,0,0-4.59,2.31c0-.27,0-.55,0-.82,0-8.24-7.23-14.92-16.15-14.92S51.46,14.58,51.46,22.82c0,8.07,6.94,14.65,15.6,14.92a2.88,2.88,0,0,0,.59.87l1,1q-.61,1.21-1.14,2.45-.29.7-.56,1.4l-.85-.88.37-1.84-1.69.83-1.64-.92.26,1.86-1.38,1.27,1.85.32.78,1.71.88-1.66L66.79,44a38.88,38.88,0,0,0-1.47,5.16L64.52,49h0a2.48,2.48,0,0,0-3.06,2.88h0v0c.55,2.76,1.13,5.56,1.63,8h0l.84,4h0l.3,1.38.09.39A34.18,34.18,0,0,0,53.83,71a27.54,27.54,0,0,0-5.13,4.9l-.7.93a1.94,1.94,0,0,0,1.1,3.05l8.43,2c-.75,1.55-1.56,3.48-2.42,5.76-1,2.69-1.73,4.9-1.81,5.15l-.66,2.06A1.94,1.94,0,0,0,55.57,97l1.81-1.19a56.31,56.31,0,0,1,14.69-6.54A66.63,66.63,0,0,1,79,87.64c.87.71,1.78,1.38,2.7,2a39,39,0,0,0,43.64,0c.86-.58,1.71-1.21,2.53-1.87,1.31.25,3.52.73,6.19,1.52a54.67,54.67,0,0,1,14.69,6.54L150.55,97a1.94,1.94,0,0,0,2.92-2.21l-.66-2.06a100.65,100.65,0,0,0-4.22-10.9l8.43-2a1.94,1.94,0,0,0,1.1-3.05Zm-35,8H123l-.08.11-.18.23-.18.23-.19.22-.09.11-.09.11a2.22,2.22,0,0,1-.21.19l0,0a4.5,4.5,0,0,1,1.94,0,2.68,2.68,0,0,1-3.06.94l-.37.29-.78.55,0,0a4.7,4.7,0,0,1,2.28.13,3,3,0,0,1-3.65.69q-.55.31-1.11.6a6.22,6.22,0,0,1,2,.6,3.17,3.17,0,0,1-3.78.19l-.82.3-.26.09-.13,0-.13,0-.52.16-.13,0-.07,0h0a6.46,6.46,0,0,1,3,.9,3.8,3.8,0,0,1-4.9-.46l-.25,0-.27,0-.27,0-.13,0h-1a8.17,8.17,0,0,1,2.73,1.53,4.36,4.36,0,0,1-5-1A.73.73,0,0,1,107,91c1.62-3.86,4.64-3.36,4.64-3.36.28,1-1.3,2.55-2.07,3.25l.12,0,.26-.06.26-.07.13,0h.13l.26,0,.26,0,.26,0,.08,0C112.26,86.89,115,87,115,87c.34.71-.51,2.08-1.13,2.94l.12,0,.13,0,.25-.09.74-.27c.57-3.1,2.84-3.31,2.84-3.31.3.55-.31,1.67-.77,2.39q.51-.26,1-.56a3.36,3.36,0,0,1,2.13-3.21c.3.39,0,1.26-.24,2l0,0,.42-.32a3.09,3.09,0,0,1,1.72-3.12c.28.32.12,1.1-.09,1.75l.59-.48a3.12,3.12,0,0,1-.08-1.8,2.24,2.24,0,0,1,.69-1.12c.28.17.31.82.29,1.37,0,.25,0,.47-.06.62s0,.18,0,.18a2.82,2.82,0,0,1,1.26-.5l.27,0,0,.1A2.2,2.2,0,0,1,123.07,84.76ZM96.35,90.85h-.68l-.13,0-.27,0-.27,0-.25,0a3.8,3.8,0,0,1-4.9.46,6.46,6.46,0,0,1,3-.9h0l-.07,0-.13,0L92.07,90l-.13,0-.13,0-.26-.09-.82-.3a3.17,3.17,0,0,1-3.78-.19,6.22,6.22,0,0,1,2-.6q-.56-.28-1.11-.6a3,3,0,0,1-3.65-.69,4.7,4.7,0,0,1,2.28-.13l0,0-.78-.55-.37-.29a2.66,2.66,0,0,1-3-.84l-.08-.1.24,0a4,4,0,0,1,1.7,0l0,0a2.22,2.22,0,0,1-.21-.19l-.09-.11-.09-.11-.19-.22-.18-.23-.18-.23-.08-.11a2.22,2.22,0,0,1-.77-.12,2.17,2.17,0,0,1-1.12-.88,3,3,0,0,1-.25-.47,4.51,4.51,0,0,1,1.05.26,1.65,1.65,0,0,1,.48.28s0-.16-.05-.39c-.06-.56-.11-1.56.25-1.78a2.33,2.33,0,0,1,.77,1.52,3.35,3.35,0,0,1-.15,1.39l.59.48c-.21-.65-.37-1.43-.09-1.75A3.09,3.09,0,0,1,85.53,86l.42.32,0,0c-.28-.7-.53-1.58-.24-2a3.36,3.36,0,0,1,2.13,3.21q.5.29,1,.56c-.47-.72-1.07-1.84-.77-2.39,0,0,2.27.21,2.84,3.31l.74.27.25.09.13,0,.12,0c-.63-.86-1.47-2.22-1.13-2.94,0,0,2.73-.13,3.65,3.57l.08,0,.26,0,.26,0,.26,0h.13l.13,0,.26.07.26.06.12,0c-.78-.7-2.35-2.28-2.07-3.25,0,0,3-.49,4.64,3.36a.73.73,0,0,1-.14.78,4.36,4.36,0,0,1-5,1,8.17,8.17,0,0,1,2.73-1.53ZM69.82,36.69h0l-.12-.12.73-.08.82-.13a15.67,15.67,0,0,0,6.16-2.51l.35-.25A14.39,14.39,0,0,0,79,32.53q.46-.43.87-.89a13.4,13.4,0,0,0,2-3l.33.44h0L84,31.41l4,5.41.21.29,12.27,16.53,0,.07a1.91,1.91,0,0,0-.16.77v.69l-.06-.08-.48-1.29a1.92,1.92,0,0,0-1.34-1.19L82.33,30.68,80,34.18,95.57,52.55H95a1.92,1.92,0,0,0-1.8,1.24l-.57,1.51v-.83a1.92,1.92,0,0,0-1.92-1.92h-1L75.89,37l-3.27.46L88.46,52.55H88a1.92,1.92,0,0,0-1.5.73,1.93,1.93,0,0,0-.8-.59l-15.94-16Zm26.3-15.27.68-.14.37,1.9.37,1.9-.6.12-.41-1.9Zm6.88-.78h.69v3.88H103l0-1.94Zm1.39,0,.69,0L105,22.6l-.09,1.94-.62,0,0-1.94Zm1.38.06.69.05-.16,1.93-.16,1.93-.62,0,.13-1.93Zm4.13.52.68.13-.39,1.9-.39,1.9-.6-.12.36-1.91Zm-4.41,12.7,3.81,2.18-4,1.7-.89,4.29-2.86-3.32-4.36.48,2.27-3.75-1.08-2.41L98,32.31l-.37-.81,2.13.5,2.14.5.83-.75,2.42-2.2.19,2.26.07.84ZM94,26l-.58.2-.63-1.83-.63-1.83.66-.22.6,1.85Zm-1.84-1.42.67,1.82-.58.22-.71-1.81L90.81,23l.65-.25Zm-1.22.48.74,1.79-.56.24-.78-1.78-.78-1.78.64-.27Zm-1.19.52.81,1.76-.55.26-.85-1.74-.85-1.74.62-.3Zm-2.89,1.52-1-1.67.6-.35,1,1.69,1,1.69-.53.31Zm.46,2-.52.33L85.72,27.8l-1.05-1.63.58-.37,1,1.65ZM88,26.47,87,24.76l.61-.32.88,1.73.88,1.73-.54.29Zm-3.88.08.6.9-.41-.55a2.88,2.88,0,0,0-.26-.3Zm34.12-.5.87-1.73.62.32-.91,1.72-.91,1.71-.55-.28Zm-1.43,1.46-.56-.26.8-1.77.8-1.77.63.29-.84,1.75ZM119.5,29l1-1.66,1-1.66.59.37-1,1.64-1,1.64Zm2.11-1,1.07-1.62.57.39-.79,1.13c-.78.65-1.34,1.1-1.72,1.39Zm-1.67-1-1,1.68-.54-.3.94-1.7.94-1.7.6.34Zm-2.75-3.55-.77,1.78L115.66,27l-.57-.24.73-1.8.73-1.8Zm-2,1.29-.69,1.81-.58-.21.66-1.82.66-1.83.65.24ZM114,24.28l-.62,1.84-.59-.19.58-1.85.58-1.85.66.22ZM113.26,22l-.54,1.86-.54,1.86-.59-.17.51-1.87.51-1.87Zm-1.81,1.52L111,25.43l-.6-.14.43-1.89.43-1.89.68.16ZM108.89,23l-.32,1.91-.61-.09.28-1.92.28-1.92.69.11Zm-1.3-.19-.24,1.92-.61-.07.2-1.93.2-1.93.69.08Zm-5.16,1.7-.62,0-.1-1.94-.1-1.94.69,0,.06,1.94Zm-1.37-1.87.14,1.93-.61.05-.18-1.93-.18-1.93.69-.06Zm-1.52-1.81.22,1.93.22,1.93-.61.08-.26-1.92-.26-1.92Zm-.78,4-.61.1-.33-1.91-.33-1.91.68-.11.3,1.92Zm-2.42.47-.6.15-.49-1.88-.49-1.88.67-.17.45,1.89Zm-1.19.31-.59.17L94,24l-.56-1.86.67-.19.52,1.87Zm15,30.25a2.46,2.46,0,0,1,.17.64,3.26,3.26,0,0,1,0,.77,2.41,2.41,0,0,1-.19.7,2.11,2.11,0,0,1-.11.22,2.47,2.47,0,0,1-.17.26l-.2.23-.23.21h0l-.25.17-.19.1-.35.14-.1,0-.18,0-.15,0,.12,0,.21.08.09,0a1.7,1.7,0,0,1,.29.16l.13.12.05.05.12.13.07.08.07.09.13.17a3.1,3.1,0,0,1,.23.33l0,.05.4.78.93,1.8h-3.11L107.19,62l-.25-.47-.48-.89-.07-.13A1.8,1.8,0,0,0,106,60a1.15,1.15,0,0,0-.23-.13,1.19,1.19,0,0,0-.44-.08H105v3.62h-2.77V54.47h4.59a6.67,6.67,0,0,1,2,.22,2.06,2.06,0,0,1,.87.54l.12.13.11.14a2.15,2.15,0,0,1,.21.37Zm22.6,1.31-1.63,2.44v3.73h-2.76V59.65l-.29-.44-1.61-2.4-1.57-2.34h3.06l1.8,3,1.8-3h3Zm3.76,15.52v1.82H132.2V76.3H137v2h-7.51V69.41h7.38v1.9H132.2v1.42ZM104.9,91.63a.35.35,0,0,0,.28.11l.16,0,.18-.08v-.15h-.34v-.34H106v.7a1.61,1.61,0,0,1-.4.21,1.35,1.35,0,0,1-.41.06,1,1,0,0,1-.48-.1.68.68,0,0,1-.29-.3,1,1,0,0,1-.1-.45,1,1,0,0,1,.11-.47.72.72,0,0,1,.33-.3,1.06,1.06,0,0,1,.45-.08,1.26,1.26,0,0,1,.41,0,.53.53,0,0,1,.22.15.68.68,0,0,1,.13.26l-.49.09a.27.27,0,0,0-.1-.14.32.32,0,0,0-.18,0,.33.33,0,0,0-.27.12.56.56,0,0,0-.1.37A.58.58,0,0,0,104.9,91.63Zm-2.83-1.2v1.64h-.51V90.44Zm-1.33,1.07a.65.65,0,0,0-.26-.1,1.11,1.11,0,0,1-.48-.2.4.4,0,0,1-.14-.32.43.43,0,0,1,.07-.24.49.49,0,0,1,.22-.18,1,1,0,0,1,.4-.06.83.83,0,0,1,.48.12.51.51,0,0,1,.2.37l-.48,0a.22.22,0,0,0-.25-.21.2.2,0,0,0-.13,0,.12.12,0,0,0,0,.09.09.09,0,0,0,0,.07.42.42,0,0,0,.17.06,2.13,2.13,0,0,1,.48.15.5.5,0,0,1,.21.18.46.46,0,0,1,.07.24.52.52,0,0,1-.09.29.55.55,0,0,1-.24.2,1,1,0,0,1-.4.07.82.82,0,0,1-.58-.16.64.64,0,0,1-.18-.41l.48,0a.37.37,0,0,0,.06.18.27.27,0,0,0,.22.1.25.25,0,0,0,.17-.05.15.15,0,0,0,.06-.12A.15.15,0,0,0,100.74,91.5ZM92.94,60h0l.88-2.34.14-.37L95,54.47h3l.65,1.72,1.69,4.5,1,2.68H98.48L98,61.91H94.91l-.43,1.47H91.66l1-2.62Zm16.63,10.49.12-.11.12-.11.25-.2.36-.23a4.22,4.22,0,0,1,.82-.34,5.9,5.9,0,0,1,1.72-.23,4.66,4.66,0,0,1,3.43,1.19,3.73,3.73,0,0,1,.73,1l0,.1a5.35,5.35,0,0,1,.43,2.22,7.09,7.09,0,0,1-.13,1.42q0,.16-.07.31t-.09.29c0,.11-.08.22-.13.33l-.1.21-.14.24a3.73,3.73,0,0,1-.5.65,3.83,3.83,0,0,1-.88.67l-.39.19-.14.05a5.56,5.56,0,0,1-1.95.31,6.86,6.86,0,0,1-1.68-.19,4.24,4.24,0,0,1-.81-.29,3.55,3.55,0,0,1-1-.72,3.91,3.91,0,0,1-.28-.32l-.09-.11q-.13-.18-.24-.37a3.81,3.81,0,0,1-.21-.41l-.06-.14q-.06-.15-.11-.3a5.4,5.4,0,0,1-.22-1.18q0-.18,0-.37t0-.19q0-.27,0-.53a5.93,5.93,0,0,1,.1-.74q0-.24.11-.45a4,4,0,0,1,.84-1.52Zm-1.64,7.85h-2.77l-.45-1.47H101.6l-.43,1.47H95.25L94.52,77l-.74-1.36-.07-.13a1.8,1.8,0,0,0-.43-.56,1.15,1.15,0,0,0-.23-.13,1.19,1.19,0,0,0-.44-.08h-.24v3.62H89.6V69.41h4.59q.56,0,1,0a5.09,5.09,0,0,1,.77.13l.18.05a2.06,2.06,0,0,1,.87.54l.12.13.11.14a2.15,2.15,0,0,1,.22.4,2.46,2.46,0,0,1,.17.64,3.26,3.26,0,0,1,0,.77,2.32,2.32,0,0,1-.3.92,2.47,2.47,0,0,1-.17.26l-.2.23-.23.21-.26.18-.19.1-.35.14-.27.08-.15,0,.12,0,.21.08.09,0a1.7,1.7,0,0,1,.29.16l.13.12.05.05.12.13.07.08.07.09.13.17a3.1,3.1,0,0,1,.23.33l0,.05.14.27,1.19,2.3.91-2.42.76-2,1.67-4.46h3l1.67,4.46.06.16,1.61,4.3Zm-29,0,.85-2.26.83-2.2,1.67-4.46h3L87,73.87l.67,1.77,1,2.68H85.8l-.45-1.47H82.23l-.43,1.47H79ZM90.73,60.42v3H88v-3.6H85v3.6H82.2V54.47H85v3.12h3V54.47h2.77ZM74.31,45.29H73l-.64-.21-1.84-.61.23-.66,1.83.65L74,45l.3.3Zm.5,18-.36-.14-.11-.06-.22-.13-.21-.15-.21-.17a3.78,3.78,0,0,1-.3-.29l-.19-.22a5,5,0,0,1-.35-.49l-.07-.12a4.07,4.07,0,0,1-.39-.93l0-.17a5.94,5.94,0,0,1-.16-1.1q0-.2,0-.41a6.46,6.46,0,0,1,.17-1.51A4.15,4.15,0,0,1,73,56l.12-.17a3.57,3.57,0,0,1,.28-.31,3.61,3.61,0,0,1,.31-.28L74,55a4.23,4.23,0,0,1,1.43-.55,6.34,6.34,0,0,1,1.25-.12h.17a6.2,6.2,0,0,1,1.09.11,4.12,4.12,0,0,1,.81.25l.15.07a3,3,0,0,1,.42.25l.23.18.22.2a3.53,3.53,0,0,1,.3.35l.18.26,0,0,.14.25a5,5,0,0,1,.22.47q.07.16.12.34l-.49.11-.58.13-1.37.3a2.18,2.18,0,0,0-.25-.58v0L78,57l-.06-.07-.13-.13h0l-.13-.1-.16-.09-.08,0-.09,0-.16,0a1.76,1.76,0,0,0-.41,0l-.34,0a1.55,1.55,0,0,0-.82.4,1.81,1.81,0,0,0-.28.33,1.57,1.57,0,0,0-.13.23l-.07.18-.06.2q0,.1,0,.22t0,.24,0,.26q0,.2,0,.43t0,.36,0,.17q0,.18,0,.35v.11L75,60a3.13,3.13,0,0,0,.09.37l.06.16,0,.11a1.33,1.33,0,0,0,.17.27l.06.07a1.43,1.43,0,0,0,.26.22l.22.12.25.08.18,0,.29,0,.32,0,.1,0,.12,0a1.44,1.44,0,0,0,.37-.15l.18-.13.11-.1.1-.12a2.37,2.37,0,0,0,.32-.59q0-.13.09-.27l.05-.2,0-.1.31.09,1.53.46.57.17a5.44,5.44,0,0,1-.22.71,4.41,4.41,0,0,1-.19.42l-.16.27v0l-.19.27-.13.16a3.31,3.31,0,0,1-.69.6l-.23.14-.24.12-.29.11a4,4,0,0,1-.49.13l-.33.05h0a6.8,6.8,0,0,1-.82,0,7.57,7.57,0,0,1-1.32-.11l-.15,0-.28-.07Zm.36,6.15h3.66l-1.6,1.65-1.65,1.71,2.11,3.44,0,0L79,78.32H75.58l-1-1.88-.92-1.79-1.42,1.49v2.17H69.52V69.41h2.75v3.37Zm5.57,10.83a2.76,2.76,0,0,1,1.53,2.68S80.53,82.62,80.73,80.24Zm42.53-5.59-1.42,1.49v2.17h-2.75V69.41h2.75v3.37l2.88-3.37h3.66l-.87.9-2.38,2.46,2.38,3.89,1,1.66h-3.39Zm9-30.38-.23-.57.79-.32c-.11.45-.18.73-.18.73l0,0Zm.77-3.09-1.75.84-.27-.55,1.73-.87.66-.33c0,.27-.07.53-.12.8Zm.12.66c-.05.27-.11.53-.16.77l-1.2.52-.25-.56Zm.08-4.37.25.42-1.1.64Zm-1.1,2,1.4-.78c0,.25,0,.52,0,.8l-1,.56-1.71.91-.14-.26a4.41,4.41,0,0,0,.8-.81Zm-7.67,15v2.2H121.7v6.71h-2.75V56.67h-2.81v-2.2h8.37Zm-9.72,0v8.91H112V54.47h2.76ZM73,43.91l-.18-.07L71,43.16l.25-.65.58.23Zm-2.67,1.23.51.16h-.56Zm32.65,46.95h-.48V90.44h.47l.62.91v-.91H104v1.64h-.48l-.62-.9Zm21.37-8.87a1.7,1.7,0,0,1-.49.19c0-.08,0-.15,0-.23v-.08a2.66,2.66,0,0,1,1.5-2.37A2.36,2.36,0,0,1,124.3,83.21ZM140.51,22.3a1,1,0,0,1-.14,2c-.44,0-1.24,0-1.55-.2a.31.31,0,0,1-.13-.28h0A2.56,2.56,0,0,1,140.51,22.3Zm-4.56-5.07a1.21,1.21,0,1,1,2.41.17,7.26,7.26,0,0,1-2.11,2.86.91.91,0,0,1-.52.24c-.21,0-.27-.28-.25-.67C135.52,19,135.92,17.68,135.95,17.23Zm-8.23,10.54,1.09-.92.55-.46.27-.23.08-.07.07-.34.07-.35c0-.14.06-.29.1-.43a3.62,3.62,0,0,1,.91-1.54l.08-.08.07-.06.13-.12.27-.24.54-.47.27-.24,0,0,.06,0,.12-.08.12-.07.13-.06a1.83,1.83,0,0,1,1-.1,2.44,2.44,0,0,1,.4.1.6.6,0,0,1,.31,0,.7.7,0,0,1,.23.1l.09.07.06.06.12.13.24.27c.94.06,3.92,2.63,3.86,3.57A4.78,4.78,0,0,1,138,28a7.43,7.43,0,0,1-.86,1,7.87,7.87,0,0,1,.62,3.5,1.43,1.43,0,0,1-1.24,1.32c-.15,1.31-.49,3.24,0,4.5a2.32,2.32,0,0,1,.09.28,2.37,2.37,0,0,1-.93,2.55,15.22,15.22,0,0,1,1,4.63,1.38,1.38,0,0,1-2.76-.19,19.1,19.1,0,0,1,.84-4.5,3.4,3.4,0,0,1-.8-2.79,17.51,17.51,0,0,1,1.4-4.79,1.43,1.43,0,0,1-.53-1.21,8.38,8.38,0,0,1,1-2.75c-.59-.3.54-2.3.72-3.26a1.41,1.41,0,0,0,0-.16A5.56,5.56,0,0,0,135.59,24l-1-.88-.27-.23h0a.64.64,0,0,1-.31,0h-.13l-.27,0a.72.72,0,0,0-.4.1l0,0,0,0,0,0h0l0,0-.23.27-.9,1.07a2.22,2.22,0,0,0-.41,1c0,.09,0,.18,0,.27l0,.35,0,.36,0,.18v.13l0,.08a1,1,0,0,1-.18.37l-.07.09,0,0,0,0,0,0-.06.06-.13.13-.25.25-.51.5c-.35.33-.69.67-1,1-.7.65-1.41,1.29-2.14,1.92s-1.47,1.23-2.25,1.82c-.34.26-.7.52-1.06.77l1,.77h0l.43.29,2.35,1.63.47.32.08-.09c.31-.37.63-.72,1-1.08l1.93-2.12,1.92-2.12,1-1.07.24-.27A.14.14,0,0,1,134,30l.09,0,.18,0,.23,0h0l-.23,0-.18,0L134,30a.13.13,0,0,0-.07.05l-.23.27-.91,1.1q-.9,1.11-1.76,2.25T129.39,36c-.27.39-.53.79-.78,1.19l-.19.3,0,0v0l0,0,0,0a.54.54,0,0,1-.2.13.58.58,0,0,1-.19,0h0l-.21.25c-.14.18-.28.36-.41.55a2.39,2.39,0,0,0-.17.29l-.15.31-.3.63-.12.27a1.31,1.31,0,0,1,.3.3,1.24,1.24,0,0,1,.21.47,1.15,1.15,0,0,1,0,.38,1.11,1.11,0,0,1-.06.24l0,.06h0l0,.1-.17.39c-.38.91-.77,1.81-1.17,2.71l-.19.43-.23.53-.46,1c-.23.52-.46,1-.7,1.56l-.35.78c-.12.27-.26.56-.41.83s-.31.54-.48.8l-.26.38-.14.19-.08.1-.09.11-.75-.57,0,0-.2.25-.1.12-.1.12h0l-.21.23-.21.22-.68.7h0l.69-.7.21-.22.2-.23h0l.1-.12.1-.12.19-.25h0l0,0-.75-.57a.83.83,0,0,0-.15.42.76.76,0,0,0,0,.27.64.64,0,0,0,.15.26l-.14-.14-.36-.36-.71-.73-1.41-1.47-1.4-1.48-.69-.74-.69-.75-1.57-1.72-1.33-1.12-.78-.66-.77-.66-.77-.67-.09-.08,0,0-.27.29-.3.33-.61.67-1.24,1.33q-1.07,1.13-2.17,2.23l.16.12c.48.38,1,.75,1.43,1.13.91.73,1.81,1.48,2.71,2.23l1.2,1,1.6,1.33,1.41,1.19H112a1.92,1.92,0,0,0-1.58.83,4,4,0,0,0-1-.52,8.38,8.38,0,0,0-2.54-.31h-3.53l-1-1.39c.59-.63,1.75-1.85,3.1-3.25l-1-.67-.43-.3-.53.57-1.25,1.32-.92,1-1.21-1.64.71-.72,1.28-1.28,1.05-1,0-.07.08-.13,0-.06,0,0,0,0,.08-.08.16-.17q1.25-1.33,2.54-2.61l1.3-1.28.66-.63c.21-.21.45-.43.73-.66l-.05,0,.08-.07h0l.06,0,.13-.1.08-.06.07-.05.14-.1-.09.08.09-.08h0l0,0a.89.89,0,0,1,.19-.12,1,1,0,0,1,.32-.09,1,1,0,0,1,.37,0,1.11,1.11,0,0,1,.39.19l.09-.07a9.59,9.59,0,0,1,.9-.64l.94-.55.94-.54,1.9-1.06.32-.18.63-.35.22-.12,0,0,0-.06a1,1,0,0,1,.38-.43l.19-.11.56-.31.25-.14q.82-.43,1.66-.82l.85-.38L121,33l.23-.09.12,0,.06,0h0l-.08,0h.19l.06,0,0,0h0l0,0,.13-.09.26-.19.27-.2.53-.43.54-.45,1.07-.91,1.07-.92Zm-72.24-1.6a10.28,10.28,0,0,1-.33-1.07,10.89,10.89,0,0,1-.3-1.88h0c0-.16,0-.32,0-.47q0-.51,0-1a10.49,10.49,0,0,1,.24-1.7q.06-.28.14-.55a10.7,10.7,0,0,1,.48-1.34q.11-.26.24-.52a11.7,11.7,0,0,1,4.33-4.69,12.91,12.91,0,0,1,1.91-1,13.71,13.71,0,0,1,2.77-.8h0l.28,0h.08l.24,0h0l.28,0H66l.23,0h.06l.28,0h2.11l.2,0h.05l.25,0h.07l.18,0h.09l.17,0h.08l.24,0h0l.22,0,.08,0,.17,0,.08,0,.19,0h.06l.24.06.06,0,.18,0,.08,0,.17,0,.07,0,.24.07.42.4q.27.27.53.57l.12.15q.21.25.41.52l.13.18q.24.35.46.71t.45.85l.08.18.09.2A10,10,0,0,1,75,16.8a9.74,9.74,0,0,1,.24,1.32l0,.18v.18h0c.42,5.1-3.33,9.75-9,10.77A12.64,12.64,0,0,1,55.48,26.17Zm12.15,8.39h-.05a14.15,14.15,0,0,1-8.24-3.06l-.42-.35a15.85,15.85,0,0,0,8,.61c7.76-1.4,12.64-8.27,10.88-15.32A11.86,11.86,0,0,0,77.28,15l.24.24L77.46,15q.41.42.78.87t.49.65l.23.34.22.34q.16.26.31.53a11.33,11.33,0,0,1,1,2.67q.07.29.13.58t.07.39q0,.19.05.38l0,.19q0,.19,0,.38v0a10.52,10.52,0,0,1-.42,3.86l-.1.31a12.15,12.15,0,0,1-9.59,7.85A14.25,14.25,0,0,1,67.63,34.56ZM79,85.79h0a64,64,0,0,0-7.68,1.8,58.26,58.26,0,0,0-15.21,6.78l-1.81,1.19.66-2.06c.12-.39,2.85-8.83,5.27-12.8L49.34,78.12l.7-.93a25.56,25.56,0,0,1,4.75-4.51q.53-.4,1.08-.78a32.31,32.31,0,0,1,13-5.29l.08.44a28.69,28.69,0,0,0-7.62,3.48,30.8,30.8,0,0,0-5.59,3.35A27.63,27.63,0,0,0,52,77.19l10.75,2.54-.71.93c-1.74,2.27-3.92,8.17-5,11.29a53.43,53.43,0,0,1,6.24-3.14q1.5-.64,3.08-1.22s3-1,7.55-2.31l1.74-.41-.15,0,2.77-.77.79.24h0a.75.75,0,0,1,.5,1,.74.74,0,0,1-.21.33h0A.76.76,0,0,1,79,85.79Zm66.75-5.16-.27.06c2.43,4,5.15,12.41,5.27,12.8l.54,1.69h0l.12.37-1.81-1.19a56.62,56.62,0,0,0-15.21-6.78,67.65,67.65,0,0,0-7.25-1.72l-.43-.07h0a.74.74,0,0,1-.61-.5.75.75,0,0,1,.5-1l.86-.26,2.77.77-.22.07c.88.2,1.92.44,3.08.76,2,.58,3.56,1.07,4.66,1.42A59.24,59.24,0,0,1,148.61,92c-1.08-3.12-3.26-9-5-11.29l-.71-.93,10.75-2.54a27.73,27.73,0,0,0-3.71-3.33,30.81,30.81,0,0,0-5.41-3.26l0-.06A29,29,0,0,0,136.79,67l.07-.4a32.31,32.31,0,0,1,14,6.07,25.56,25.56,0,0,1,4.75,4.51l.63.84.06.09Z" transform="translate(-47.62 -1.84)"/><ellipse class="cls-1" cx="125.46" cy="41.67" rx="0.01" transform="translate(-12.09 136.73) rotate(-65.51)"/><path class="cls-1" d="M123.61,40.55l-.3.74-.36.89-2.54,6.2.39.36.58.53.17-.32c.12-.23.23-.46.33-.71l.33-.79c.22-.52.45-1,.68-1.57s.45-1,.68-1.56l.35-.79.4-.89.59-1.3-.14-.09Z" transform="translate(-47.62 -1.84)"/><path class="cls-1" d="M118.42,37.32l-.84-.37-.21-.1-.11,0-.05,0h0l0,0-.09-.06-.05,0h0l-.05,0-1,.4-2,.79-1,.39-1,.38q-.52.21-1,.46l0,0,.09.09.34.37.69.75.49.54a20.69,20.69,0,0,1,6.07-3.11l.39-.13-.47-.3Z" transform="translate(-47.62 -1.84)"/><path class="cls-1" d="M110,40.68h0l0,0h0Z" transform="translate(-47.62 -1.84)"/><path class="cls-1" d="M109.6,40.27h0s0,0,0,0l0,0,0,0,0,0Z" transform="translate(-47.62 -1.84)"/><path class="cls-1" d="M109.91,40.43h.18a.75.75,0,0,0,.32-.11l.06,0Z" transform="translate(-47.62 -1.84)"/><polygon class="cls-1" points="62.84 38.45 62.84 38.45 62.84 38.45 62.84 38.45"/><path class="cls-1" d="M104.71,45l0,0h0Z" transform="translate(-47.62 -1.84)"/><path class="cls-1" d="M110.56,40.2l-.06.05Z" transform="translate(-47.62 -1.84)"/><path class="cls-1" d="M110.53,40.23l-.05,0h0l0,0,0,0Z" transform="translate(-47.62 -1.84)"/><path class="cls-1" d="M134.15,22.8l0,0,0,0s0,0,0,0Z" transform="translate(-47.62 -1.84)"/><path class="cls-1" d="M129.65,26.4v-.07h0v.06S129.65,26.4,129.65,26.4Z" transform="translate(-47.62 -1.84)"/><path class="cls-1" d="M133.89,22l-.07.06,0,0Z" transform="translate(-47.62 -1.84)"/><path class="cls-1" d="M121.41,35l-.83.39q-.71.33-1.44.63h0l0,0,1.21.63-.26-.1h0l.26.1,1.91,1,1.91,1,.09,0h0l1.41.78.37.21.19.1.09.05,0,0,0,0,.07,0,.1-.27.24-.65.11-.33a3.57,3.57,0,0,1,.14-.33c.1-.22.21-.42.32-.63l.1-.18h0l-.64-.32L124.34,36l-.46-.23h0c-.69-.31-1.37-.63-2-1Z" transform="translate(-47.62 -1.84)"/><path class="cls-1" d="M118.08,35.27l0,0,.06,0,0,0,0,0h0Z" transform="translate(-47.62 -1.84)"/><path class="cls-1" d="M72.63,15S66.06,9,60.14,15.41A14.74,14.74,0,0,1,72.63,15Z" transform="translate(-47.62 -1.84)"/><polygon class="cls-1" points="48.86 54.94 47.89 58.14 49.84 58.14 48.86 54.94"/><path class="cls-1" d="M107.34,56.56l-.06-.06-.12-.08-.15-.06a2.56,2.56,0,0,0-.75-.09H105v1.81h1.16a3.45,3.45,0,0,0,.6-.09l.13,0,.19-.06h0l.13-.09.06-.06.06-.06.08-.12a.8.8,0,0,0,.07-.19.88.88,0,0,0,0-.21.93.93,0,0,0-.11-.46A.72.72,0,0,0,107.34,56.56Z" transform="translate(-47.62 -1.84)"/><polygon class="cls-1" points="36.18 69.88 35.21 73.08 37.17 73.08 36.18 69.88"/><path class="cls-1" d="M94.67,71.5l-.06-.06-.12-.08-.15-.06a2.56,2.56,0,0,0-.75-.09H92.37V73h1.16a3.45,3.45,0,0,0,.6-.09l.13,0,.19-.06.07,0,.05,0a.78.78,0,0,0,.13-.14l.08-.12a.8.8,0,0,0,.07-.19.88.88,0,0,0,0-.21.93.93,0,0,0-.11-.46A.72.72,0,0,0,94.67,71.5Z" transform="translate(-47.62 -1.84)"/><polygon class="cls-1" points="54.58 73.08 56.53 73.08 55.55 69.88 54.58 73.08"/><path class="cls-1" d="M111.14,74.51a3.33,3.33,0,0,0,.16.76,2.13,2.13,0,0,0,.09.21l.1.18.06.08.06.08a1.7,1.7,0,0,0,.2.2l.15.11.16.09.26.1.09,0,.12,0a2.2,2.2,0,0,0,.38,0,2.26,2.26,0,0,0,.49,0l.26-.08.21-.1.15-.1.14-.12.13-.14.11-.16a1.91,1.91,0,0,0,.18-.4q0-.12.07-.24a4.65,4.65,0,0,0,.1-.74q0-.25,0-.53t0-.45a3.92,3.92,0,0,0-.05-.4q0-.13-.06-.24l0-.11a2.23,2.23,0,0,0-.08-.21,1.64,1.64,0,0,0-.62-.74l-.25-.13a1.82,1.82,0,0,0-.47-.12l-.21,0H113a1.84,1.84,0,0,0-.75.15l-.24.13-.07.05-.14.12-.13.14-.06.08a1.74,1.74,0,0,0-.2.37q0,.1-.08.22l0,.12q0,.12-.06.26a5.29,5.29,0,0,0-.07.91q0,.17,0,.33T111.14,74.51Z" transform="translate(-47.62 -1.84)"/><polygon class="cls-1" points="32.37 3.46 33.15 5.16 34.03 3.5 35.9 3.29 34.59 1.94 34.96 0.1 33.28 0.92 31.64 0 31.9 1.86 30.52 3.13 32.37 3.46"/><polygon class="cls-1" points="69.02 8.01 70.24 9.44 70.64 7.6 72.37 6.88 70.74 5.95 70.59 4.07 69.2 5.33 67.37 4.89 68.14 6.61 67.16 8.21 69.02 8.01"/></svg>